<svg xmlns="http://www.w3.org/2000/svg" viewBox="0 0 32 32" fill="none">
  <path d="M23.054 6.326a.394.394 0 00-.354-.338c-.147-.016-3.255-.055-3.255-.055s-2.163-2.1-2.382-2.319a.813.813 0 00-.546-.206l-1.33 27.293 9.655-2.085S23.07 6.55 23.054 6.326zm-5.885 2.017l-1.13 3.454s-1.244-.578-2.772-.578c-2.24 0-2.352 1.405-2.352 1.76 0 1.932 5.04 2.674 5.04 7.201 0 3.563-2.26 5.855-5.307 5.855-3.657 0-5.525-2.275-5.525-2.275l.977-3.227s1.922 1.651 3.547 1.651c1.061 0 1.495-.836 1.495-1.447 0-2.524-4.134-2.636-4.134-6.777 0-3.485 2.504-6.862 7.562-6.862 1.946 0 2.599.558 2.599.558z" fill="#95BF47"/>
</svg>